<svg width="85" height="105" viewBox="0 0 85 105" fill="none" xmlns="http://www.w3.org/2000/svg">
    <path d="M85 95H0V90H5V80H0V40H5V20H0V5H5V0H25V5H60V0H80V5H85V20H80V40H85V80H80V90H85V95Z" fill="#613819"/>
    <path d="M5 5H25V10H60V5H80V20H75V40H80V80H75V85H10V80H5V40H10V20H5V5Z" fill="#C7731D"/>
    <path d="M5 5V20H10V15H15V10H20V5H5Z" fill="#FFB4C5"/>
    <path d="M80 5V20H75V15H70V10H65V5H80Z" fill="#FFB4C5"/>
    <path d="M60 55V60H70V55H60Z" fill="#FFB4C5"/>
    <path d="M80 90V95H70V90H80Z" fill="#FFB4C5"/>
    <path d="M5 90V95H15V90H5Z" fill="#FFB4C5"/>
    <path d="M15 55V60H25V55H15Z" fill="#FFB4C5"/>
    <path d="M15 45H10V50H75V45H70V20H75V15H70V10H50V15H45V25H40V15H35V10H15V15H10V20H15V45Z" fill="#FF9929"/>
    <path d="M10 75V50H15V45H70V50H75V75H10Z" fill="white"/>
    <path d="M15 90V65H30V50H55V65H70V90H65V95H60V100H55V105H30V100H25V95H20V90H15Z" fill="#F0BC00"/>
    <path d="M20 90V65H30V55H55V65H65V90H60V95H55V100H30V95H25V90H20Z" fill="#FFDC00"/>
    <path fill-rule="evenodd" clip-rule="evenodd" d="M35 65V60H45V65H50V70H55V75H50V80H55V85H50V90H45V95H35V90H30V65H35ZM45 80V85H40V80H45ZM45 75V70H40V75H45Z" fill="#F0BC00"/>
    <path d="M35 65V90H40V95H45V90H50V85H40V80H50V75H40V70H50V65H45V60H40V65H35Z" fill="#B98500"/>
    <path d="M50 70V75H55V70H50Z" fill="#B98500"/>
    <path d="M50 80V85H55V80H50Z" fill="#B98500"/>
    <path d="M30 65H15V55H20V50H25V55H30V65Z" fill="#613819"/>
    <path d="M25 55V60H15V55H25Z" fill="#FFB4C5"/>
    <path d="M55 65H70V55H65V50H60V55H55V65Z" fill="#613819"/>
    <path d="M60 55V60H70V55H60Z" fill="#FFB4C5"/>
    <path d="M35 35V20H20V35H35Z" fill="#C7731D"/>
    <path d="M30 35V25H20V35H30Z" fill="#070200"/>
    <path d="M30 30H25V25H30V30Z" fill="white"/>
    <path d="M65 35V20H50V35H65Z" fill="#C7731D"/>
    <path d="M60 35V25H50V35H60Z" fill="#070200"/>
    <path d="M60 30H55V25H60V30Z" fill="white"/>
    <path d="M30 40V50H55V40H30Z" fill="#613819"/>
    <path d="M50 40V45H35V40H50Z" fill="#FFB4C5"/>
    <path d="M45 45H40V40H45V45Z" fill="#933B1C"/>
    <path d="M45 50H40V45H45V50Z" fill="white"/>
</svg>
