<svg xmlns="http://www.w3.org/2000/svg" viewBox="0 0 181 181">
  <g id="ab7fcb69-d3d7-4fa5-ac6f-b9cbde56a0fa" data-name="Layer 2">
    <g id="b8665d31-9a17-4c7f-86e1-eae8fdea54ee" data-name="Pagina Movil">
      <g id="a21d13b5-390b-4d9b-a968-84c0610af55d" data-name="La agencia">
        <g>
          <g id="ae4721c1-c4c7-456b-bd86-cec1c235a6c7" data-name="#2c3e50ff">
            <path d="M85.2,0H95.8A90.9,90.9,0,0,1,181,85.2V95.8A90.7,90.7,0,0,1,95.8,181H85.2A90.9,90.9,0,0,1,0,95.8V85.2A90.7,90.7,0,0,1,85.2,0m2.6,18.8c-5.9.3-12,2.6-15.5,7.6s-4.5,12-4.2,18.3c-2.2.1-5.2-.3-6.3,2s1.7,3,3.3,3.7a33.9,33.9,0,0,0-1.5,8.9,28.4,28.4,0,0,0,3.5,13,26.8,26.8,0,0,0,42.6,5.6,27.4,27.4,0,0,0,7.7-18.5h-.2a29.9,29.9,0,0,0-1.2-8.9c1.8-.6,4.4-2.9,2.4-4.8s-3.6-.9-5.5-.9c.3-6.5-.3-13.5-4.5-18.8s-9.5-6.8-15.2-7.1l-2.6-1-2.8,1M74.4,90.1c-3.4.8-5.9,3.5-7.6,6.4a43.7,43.7,0,0,0-5.1,15.9c-1.9,11.3-3.1,22.8-4.3,34.3-.2,7.8,6.1,15.4,14.1,15.4v-.3c6.3.5,12.7.3,19.1.2h14.7c1.3-.1,3,.3,3.9-.9a4.4,4.4,0,0,1,.2,1c8.1,0,14.3-7.6,14.1-15.4-1.2-13.1-2.4-26.3-4.3-39.3-.9-5.6-2.3-11.7-7-15.4s-8.4-2.2-12.6-2.1-6.8-.3-10.2-.1-4.9,0-7.4,0A39.4,39.4,0,0,0,74.4,90.1Z" style="fill: #2c3e50"/>
          </g>
          <g id="ffa1bc32-df33-4094-9765-1689ad0d0f48" data-name="#efd050ff">
            <path d="M87.8,18.8l2.8-1c-.3,9.3,0,18.7-.1,28h-5l-1.1-.9a90.4,90.4,0,0,1,.7-18A26.7,26.7,0,0,1,87.8,18.8Z" style="fill: #efd050"/>
          </g>
          <g id="a89b3a2a-0655-4207-ac35-3c55f709d99a" data-name="#edc92cff">
            <path d="M90.6,17.8l2.6,1c4.2,8.3,3.4,17.9,3.5,26.8a42.8,42.8,0,0,1-6.2.2C90.6,36.5,90.3,27.1,90.6,17.8Z" style="fill: #edc92c"/>
            <path d="M72.3,26.4c3.5-5,9.6-7.3,15.5-7.6a26.7,26.7,0,0,0-2.7,8.1,90.4,90.4,0,0,0-.7,18l1.1.9L68.1,44.7C67.8,38.4,68.4,31.6,72.3,26.4Z" style="fill: #edc92c"/>
          </g>
          <g id="b78d0527-3571-486f-a1f2-3d65309621a9" data-name="#e0b500ff">
            <path d="M93.2,18.8c5.7.3,11.6,2.5,15.2,7.1s4.8,12.3,4.5,18.8c-5.4.2-10.8.7-16.2.9C96.6,36.7,97.4,27.1,93.2,18.8Z" style="fill: #e0b500"/>
          </g>
          <g id="efd5231b-07c0-4b43-a9ad-f41e0ea7cd75" data-name="#dbb626ff">
            <path d="M61.8,46.7c1.1-2.3,4.1-1.9,6.3-2l17.4,1.1h5a42.8,42.8,0,0,0,6.2-.2c5.4-.2,10.8-.7,16.2-.9,1.9,0,3.9-.1,5.5.9s-.6,4.2-2.4,4.8a31.6,31.6,0,0,1-6.7,1.8c-7.7,1.3-15.5,1.2-23.3,1.2s-14.3-.5-20.9-3C63.5,49.7,61.8,48.6,61.8,46.7Z" style="fill: #dbb626"/>
          </g>
          <g id="e99bb290-c1d9-4414-bde5-2f073c890098" data-name="#492a15ff">
            <path d="M65.1,50.4C71.7,52.9,79,53,86,53.4a64.6,64.6,0,0,1-22.4,5.9A33.9,33.9,0,0,1,65.1,50.4Z" style="fill: #492a15"/>
            <path d="M109.3,52.2a31.6,31.6,0,0,0,6.7-1.8,29.9,29.9,0,0,1,1.2,8.9C114.5,57,111.9,54.6,109.3,52.2Z" style="fill: #492a15"/>
            <path d="M75.9,74.7c-1.7-2.1-.8-6.7,2.7-5.4a11.7,11.7,0,0,0,.5,2,2.5,2.5,0,0,0-2.1-.8c-.7,1.8,1.3,3.1,2.8,3.3s2.4-1.6,3.3-2.7,5.5-2.8,7.4-.5c1.5-1.9,4.4-1.8,6.2-.5s1.8,2,2.8,3,4.3.3,4.6-1.6-1.6-.8-2.2-.1l.6-2.2a2.5,2.5,0,0,1,3.4,2.1c.3,2.6-1.7,5-4,5.8-3.9,1.4-9,.9-11.4-2.9C87.4,78.9,79.4,79.1,75.9,74.7Z" style="fill: #492a15"/>
          </g>
          <g id="bab08c38-76f2-4d6f-9be3-3bc292036c30" data-name="#e9c29cff">
            <path d="M86,53.4c7.8,0,15.6.1,23.3-1.2,2.6,2.4,5.2,4.8,7.9,7.1h.2a27.4,27.4,0,0,1-7.7,18.5,26.8,26.8,0,0,1-42.6-5.6,28.4,28.4,0,0,1-3.5-13A64.6,64.6,0,0,0,86,53.4m-5.2,6.2c-3,1.4-2.7,6.4.5,7.3s6.1-2.5,4.6-5.4a3.7,3.7,0,0,0-5.1-1.9m15.6.1a4.1,4.1,0,0,0,.6,7.2c2.8,1.3,5.9-1.9,5-4.7a3.7,3.7,0,0,0-5.6-2.5m-20.5,15c3.5,4.4,11.5,4.2,14.6-.5,2.4,3.8,7.5,4.3,11.4,2.9,2.3-.8,4.3-3.2,4-5.8a2.5,2.5,0,0,0-3.4-2.1l-.6,2.2c.6-.7,2.4-1.8,2.2.1s-3.2,3-4.6,1.6-1.6-2.2-2.8-3-4.7-1.4-6.2.5c-1.9-2.3-5.6-1.6-7.4.5s-1.6,2.6-3.3,2.7-3.5-1.5-2.8-3.3a2.5,2.5,0,0,1,2.1.8,11.7,11.7,0,0,1-.5-2C75.1,68,74.2,72.6,75.9,74.7Z" style="fill: #e9c29c"/>
            <path d="M57.4,146.7h17c-.9,5.1-1.8,10.1-2.8,15.1v.3C63.5,162.1,57.2,154.5,57.4,146.7Z" style="fill: #e9c29c"/>
            <path d="M107.4,146.7h16.2c.2,7.8-6,15.4-14.1,15.4a4.4,4.4,0,0,0-.2-1C108.6,156.3,108,151.5,107.4,146.7Z" style="fill: #e9c29c"/>
          </g>
          <g id="fcf3c869-c001-441c-b979-aec3b1b6d85a" data-name="#343433ff">
            <path d="M80.8,59.6a3.7,3.7,0,0,1,5.1,1.9c1.5,2.9-1.5,6.7-4.6,5.4s-3.5-5.9-.5-7.3m2,.5c-1.6.9-.7,3.8,1.2,3.2S84.9,59.2,82.8,60.1Z" style="fill: #343433"/>
            <path d="M96.4,59.7a3.7,3.7,0,0,1,5.6,2.5c.9,2.8-2.2,6-5,4.7a4.1,4.1,0,0,1-.6-7.2m2.1.6c-1.5,1.3.1,4,1.8,2.8S100.3,59,98.5,60.3Z" style="fill: #343433"/>
          </g>
          <g id="bc54c746-1542-46be-84ba-1c573b295112" data-name="#f6f6f6ff">
            <path d="M82.8,60.1c2.1-.9,3.5,2.6,1.2,3.2S81.2,61,82.8,60.1Z" style="fill: #f6f6f6"/>
          </g>
          <g id="a081d9b3-756e-42e0-9889-377e2f7baafc" data-name="#ffffffff">
            <path d="M98.5,60.3c1.8-1.3,3.7,1.6,1.8,2.8S97,61.6,98.5,60.3Z" style="fill: #fff"/>
            <path d="M87.7,98a5,5,0,0,0,5.6-.2c.1.9.3,1.8.4,2.8-2.5,1.7-4.6,3.8-7.1,5.5C87,103.4,87.3,100.7,87.7,98Z" style="fill: #fff"/>
            <path d="M86.2,109.8l7.8-6.4c.2,1.1.3,2.3.5,3.4s-.1,1-.1,1.3l-9,7.3C85.7,113.5,85.9,111.7,86.2,109.8Z" style="fill: #fff"/>
            <path d="M95,110.9l.6,4.7c-3.5,2.4-6.4,5.4-9.8,7.8l-1.4.3c.2-1.6.4-3.3.7-5C88.6,116.4,91.7,113.5,95,110.9Z" style="fill: #fff"/>
            <path d="M83.8,128.2c4.1-3.2,8.1-6.5,12.1-9.8l.6,4.6L83.1,133.9C83.3,132,83.6,130.1,83.8,128.2Z" style="fill: #fff"/>
            <path d="M82.7,137.4c4.8-3.7,9.4-7.7,14.2-11.4.1.5.2,1.5.3,2s.2,1.7.2,2.2c-4.9,4.6-10.3,8.6-15.5,12.9C82.2,141.2,82.4,139.3,82.7,137.4Z" style="fill: #fff"/>
            <path d="M84.3,144.4c4.6-3.6,9-7.4,13.5-11l.6,4.6c-4.6,3.6-9,7.4-13.6,11l-2.7-2.4Z" style="fill: #fff"/>
            <path d="M86.7,150.8l12.1-9.9c.2,1.7.4,3.3.7,5-2.9,2.8-6.2,5.2-9.3,8Z" style="fill: #fff"/>
          </g>
          <g id="bd8fa3f3-9b7b-41be-8971-4da687e2239a" data-name="#29636dff">
            <path d="M74.4,90.1a39.4,39.4,0,0,1,7.7-.3c-2.5,19-5.1,37.9-7.7,56.9h-17c1.2-11.5,2.4-23,4.3-34.3a43.7,43.7,0,0,1,5.1-15.9C68.5,93.6,71,90.9,74.4,90.1Z" style="fill: #29636d"/>
            <path d="M99.7,89.9c4.2-.1,9-.7,12.6,2.1s6.1,9.8,7,15.4c1.9,13,3.1,26.2,4.3,39.3H107.4C104.8,127.8,102.4,108.8,99.7,89.9Z" style="fill: #29636d"/>
          </g>
          <g id="ad81ccd3-b575-43e3-a81c-4660fdb5843c" data-name="#0e2c2dff">
            <path d="M82.1,89.8c2.5,0,4.9-.2,7.4,0l-.7.6A4.7,4.7,0,0,0,87.7,98c-.4,2.7-.7,5.4-1.1,8.1s-.3,2.4-.4,3.7-.5,3.7-.8,5.6l-.3,3.3c-.3,1.7-.5,3.4-.7,5l-.6,4.5c-.2,1.9-.5,3.8-.7,5.7s-.3,2.3-.4,3.5-.5,3.8-.8,5.7-.6,2.5.2,3.5l2.7,2.4,1.9,1.8,3.5,3.1c.9,2.6.6,5.4.5,8.1-6.4.1-12.8.3-19.1-.2,1-5,1.9-10,2.8-15.1C77,127.7,79.6,108.8,82.1,89.8Z" style="fill: #0e2c2d"/>
          </g>
          <g id="bd76cb6d-56d5-4c03-b253-4368046c5965" data-name="#17474cff">
            <path d="M89.5,89.8c3.4-.2,6.8,0,10.2.1,2.7,18.9,5.1,37.9,7.7,56.8.6,4.8,1.2,9.6,1.9,14.4-.9,1.2-2.6.8-3.9.9H90.7c.1-2.7.4-5.5-.5-8.1,3.1-2.8,6.4-5.2,9.3-8-.3-1.7-.5-3.3-.7-5s-.3-1.9-.4-2.9l-.6-4.6-.6-5.4c-.1-.5-.2-1.5-.3-2s-.3-2-.4-3l-.6-4.6-.3-2.8-.6-4.7c-.2-1.4-.4-2.7-.5-4.1s-.3-2.3-.5-3.4l-.3-2.8c-.1-1-.3-1.9-.4-2.8,1.6-1.8,1.9-4.9-.1-6.5s-2.9-.8-4.4-.9Z" style="fill: #17474c"/>
          </g>
          <g id="eb0302bd-c7b9-4b1c-800d-d9ecb19f2836" data-name="#6fc5bcff">
            <path d="M87.7,98a4.7,4.7,0,0,1,1.1-7.6c1.5.1,3.3-.4,4.4.9s1.7,4.7.1,6.5A5,5,0,0,1,87.7,98Z" style="fill: #6fc5bc"/>
          </g>
          <g id="b8fd0fbc-fe48-4017-aa20-395089b769dd" data-name="#8dd3d5ff">
            <path d="M86.6,106.1c2.5-1.7,4.6-3.8,7.1-5.5l.3,2.8-7.8,6.4C86.3,108.5,86.5,107.3,86.6,106.1Z" style="fill: #8dd3d5"/>
            <path d="M94.5,106.8c.1,1.4.3,2.7.5,4.1-3.3,2.6-6.4,5.5-9.9,7.8l.3-3.3,9-7.3C94.4,107.8,94.5,107.1,94.5,106.8Z" style="fill: #8dd3d5"/>
            <path d="M85.8,123.4c3.4-2.4,6.3-5.4,9.8-7.8l.3,2.8c-4,3.3-8,6.6-12.1,9.8l.6-4.5Z" style="fill: #8dd3d5"/>
            <path d="M83.1,133.9,96.5,123c.1,1,.3,2,.4,3-4.8,3.7-9.4,7.7-14.2,11.4C82.8,136.2,83,135.1,83.1,133.9Z" style="fill: #8dd3d5"/>
            <path d="M97.2,128l.6,5.4c-4.5,3.6-8.9,7.4-13.5,11l-2.2,2.2c-.8-1-.2-2.3-.2-3.5,5.2-4.3,10.6-8.3,15.5-12.9C97.4,129.7,97.2,128.5,97.2,128Z" style="fill: #8dd3d5"/>
            <path d="M84.8,149c4.6-3.6,9-7.4,13.6-11,.1,1,.3,2,.4,2.9l-12.1,9.9Z" style="fill: #8dd3d5"/>
          </g>
        </g>
      </g>
    </g>
  </g>
</svg>
